<svg width="40" height="40" viewBox="0 0 40 40" fill="none" xmlns="http://www.w3.org/2000/svg">
<path d="M30.1265 21.1019L30.1265 21.1019C29.9882 20.9633 29.8148 20.865 29.6248 20.8175C29.4349 20.77 29.2356 20.7751 29.0484 20.8323L29.0482 20.8324C27.6752 21.2469 26.2155 21.2812 24.8245 20.9316C23.4336 20.5821 22.1635 19.8618 21.1495 18.8474C20.1356 17.8331 19.4158 16.5627 19.0668 15.1716C18.7177 13.7806 18.7526 12.3208 19.1676 10.948L19.1677 10.9478C19.2254 10.7604 19.2309 10.5609 19.1837 10.3707C19.1364 10.1805 19.0382 10.0067 18.8997 9.86814C18.7611 9.72955 18.5873 9.63136 18.3971 9.58413C18.2069 9.53691 18.0074 9.54243 17.82 9.60011L17.82 9.60012C15.7767 10.2281 13.9836 11.4847 12.6959 13.191L30.1265 21.1019ZM30.1265 21.1019C30.2646 21.2399 30.3627 21.4129 30.4101 21.6023C30.4576 21.7917 30.4527 21.9904 30.3961 22.1772C29.7696 24.221 28.5143 26.0152 26.8089 27.3042L26.8089 27.3042C25.0651 28.6236 22.9368 29.3345 20.7501 29.3281H20.75M30.1265 21.1019L20.75 29.3281M20.75 29.3281C18.877 29.3283 17.041 28.8064 15.4481 27.8212C13.8552 26.8361 12.5683 25.4264 11.7319 23.7506C10.8955 22.0748 10.5426 20.199 10.7129 18.3338C10.8832 16.4686 11.5698 14.6877 12.6958 13.191L20.75 29.3281ZM25.5116 25.5818L25.5117 25.5818C26.3111 24.9778 26.99 24.2289 27.5128 23.3741L27.5603 23.2965L27.4695 23.3029C27.2306 23.3197 26.9908 23.3281 26.75 23.3281C24.0781 23.3252 21.5163 22.2624 19.627 20.373C17.7376 18.4836 16.6748 15.9219 16.6719 13.2499C16.6719 13.0092 16.6803 12.7694 16.6971 12.5305L16.7034 12.4397L16.6258 12.4872C15.7713 13.0103 15.0224 13.689 14.4182 14.4883L14.4182 14.4884C13.2698 16.0138 12.711 17.9027 12.8447 19.8073C12.9783 21.712 13.7954 23.5044 15.1455 24.8545C16.4956 26.2046 18.288 27.0217 20.1926 27.1553C22.0973 27.289 23.9862 26.7302 25.5116 25.5818Z" fill="#475569" stroke="#475569" stroke-width="0.09375"/>
</svg>
